<?xml version="1.0" encoding="utf-8"?>
<!-- Generator: Adobe Illustrator 18.0.0, SVG Export Plug-In . SVG Version: 6.00 Build 0)  -->
<!DOCTYPE svg PUBLIC "-//W3C//DTD SVG 1.1//EN" "http://www.w3.org/Graphics/SVG/1.1/DTD/svg11.dtd">
<svg version="1.1" id="Layer_1" xmlns="http://www.w3.org/2000/svg" xmlns:xlink="http://www.w3.org/1999/xlink" x="0px" y="0px"
	 viewBox="0 0 24 24" enable-background="new 0 0 24 24" xml:space="preserve">
<path fill="#FFFFFF" d="M1.9,19.4l7.4-6.5l1.2,1c0.5,0.4,1.1,0.6,1.8,0.6c0.6,0,1.3-0.2,1.8-0.7l1-1l7,6.5l0,0H1.9V19.4z M1.6,18.2
	v-12l6.9,6L1.6,18.2z M1.9,4.6h20.2c0.1,0,0.1,0,0.2,0.1l0,0l-9,8.3c-0.3,0.3-0.7,0.4-1.1,0.4c-0.4,0-0.8-0.1-1-0.4L1.7,4.7l0,0
	C1.8,4.7,1.8,4.6,1.9,4.6z M22.4,18.1l-6.5-6l6.5-6V18.1z M23.4,3.6C23.1,3.2,22.6,3,22.1,3H1.9c-0.5,0-1,0.2-1.3,0.6
	C0.2,3.9,0,4.4,0,4.9v14.2c0,0.5,0.2,1,0.6,1.3C0.9,20.8,1.4,21,1.9,21h20.2c0.5,0,1-0.2,1.3-0.6c0.3-0.3,0.6-0.8,0.6-1.3V4.9
	C24,4.4,23.8,3.9,23.4,3.6z"/>
</svg>
