<?xml version="1.0" encoding="utf-8"?>
<!-- Generator: Adobe Illustrator 18.0.0, SVG Export Plug-In . SVG Version: 6.00 Build 0)  -->
<!DOCTYPE svg PUBLIC "-//W3C//DTD SVG 1.1//EN" "http://www.w3.org/Graphics/SVG/1.1/DTD/svg11.dtd">
<svg version="1.1" id="Layer_1" xmlns="http://www.w3.org/2000/svg" xmlns:xlink="http://www.w3.org/1999/xlink" x="0px" y="0px"
	 viewBox="0 0 24 24" enable-background="new 0 0 24 24" xml:space="preserve">
<path fill="#FFFFFF" d="M17.8,18.9H6.3V1.5h11.4L17.8,18.9L17.8,18.9z M11.9,22.8c-0.7,0-1.3-0.6-1.3-1.3c0-0.7,0.6-1.3,1.3-1.3
	s1.3,0.6,1.3,1.3C13.2,22.3,12.6,22.8,11.9,22.8z M16.8,0H7.2c0,0-2.1,0-2.1,2.1v19.8c0,0,0,2.1,2.1,2.1h9.7c0,0,2.1,0,2.1-2.1V2.1
	C18.9,2.1,18.9,0,16.8,0z"/>
</svg>
